<?xml version="1.0" standalone="no"?><!DOCTYPE svg PUBLIC "-//W3C//DTD SVG 1.1//EN" "http://www.w3.org/Graphics/SVG/1.1/DTD/svg11.dtd"><svg t="1753978794457" class="icon" viewBox="0 0 1024 1024" version="1.1" xmlns="http://www.w3.org/2000/svg" p-id="17977" xmlns:xlink="http://www.w3.org/1999/xlink" width="200" height="200"><path d="M512 0C230.445201 0 2.161138 199.763908 2.161138 446.106521c0 140.819846 74.723167 266.201961 191.187993 347.933248v225.637955c74.450429-45.178888 148.902664-90.345132 223.342255-135.520407 30.906167 5.09353 62.699186 8.064756 95.308614 8.064756 281.554799 0 509.837056-199.72959 509.837056-446.113746C1021.83525 199.763908 793.554799 0 512 0zM257.081472 509.837056c-35.177868 0-63.732341-28.552667-63.732341-63.728729 0-35.168837 28.554473-63.72331 63.732341-63.72331 35.176062 0 63.732341 28.554473 63.732341 63.72331-0.001806 35.176062-28.556279 63.728729-63.732341 63.728729z m254.918528 0c-35.177868 0-63.732341-28.552667-63.732341-63.728729 0-35.168837 28.554473-63.72331 63.732341-63.72331s63.730535 28.554473 63.730535 63.72331c0 35.176062-28.554473 63.728729-63.730535 63.728729z m254.918528 0c-35.177868 0-63.732341-28.552667-63.732341-63.728729 0-35.168837 28.556279-63.72331 63.732341-63.72331s63.732341 28.554473 63.732341 63.72331c0 35.176062-28.556279 63.728729-63.732341 63.728729z" fill="#231815" p-id="17978"></path></svg>