<?xml version="1.0" standalone="no"?><!DOCTYPE svg PUBLIC "-//W3C//DTD SVG 1.1//EN" "http://www.w3.org/Graphics/SVG/1.1/DTD/svg11.dtd"><svg t="1753929843913" class="icon" viewBox="0 0 1024 1024" version="1.1" xmlns="http://www.w3.org/2000/svg" p-id="2514" xmlns:xlink="http://www.w3.org/1999/xlink" width="200" height="200"><path d="M512.199291 1024a511.89762 511.89762 0 1 1 511.610958-511.89762A512.409518 512.409518 0 0 1 512.199291 1024z m0-943.120176a431.222555 431.222555 0 1 0 431.0997 431.222556A431.529694 431.529694 0 0 0 512.199291 80.879824zM737.434244 552.84943h-184.283143v184.283143a40.95181 40.95181 0 0 1-81.90362 0v-184.283143h-184.283143a40.95181 40.95181 0 0 1 0-81.903619h184.283143v-184.283144a40.95181 40.95181 0 0 1 81.90362 0v184.283144h184.283143a40.95181 40.95181 0 0 1 0 81.903619z" fill="#B3B3B3" p-id="2515"></path></svg>