<?xml version="1.0" standalone="no"?><!DOCTYPE svg PUBLIC "-//W3C//DTD SVG 1.1//EN" "http://www.w3.org/Graphics/SVG/1.1/DTD/svg11.dtd"><svg t="1753018427776" class="icon" viewBox="0 0 1024 1024" version="1.1" xmlns="http://www.w3.org/2000/svg" p-id="2289" xmlns:xlink="http://www.w3.org/1999/xlink" width="200" height="200"><path d="M180.002119 846.369394c-5.705955 0-11.252275-2.390443-15.188934-6.748704-5.191232-5.746888-6.693446-13.932314-3.8814-21.148669l39.822984-102.208846c-24.344454-26.812669-43.638893-56.431244-57.438177-88.197738-16.114003-37.099966-24.285103-76.149331-24.285103-116.065436 0-45.594431 10.580986-89.792049 31.448246-131.366933 20.013823-39.873126 48.589648-75.619258 84.934414-106.246813 74.04132-62.393026 172.268482-96.754624 276.584316-96.754624 104.316857 0 202.542996 34.361599 276.584316 96.754624 36.34579 30.626531 64.920592 66.372663 84.934414 106.246813 20.868283 41.574884 31.448246 85.773526 31.448246 131.366933s-10.580986 89.792049-31.448246 131.366933c-20.013823 39.874149-48.588625 75.620281-84.934414 106.246813-74.04132 62.393026-172.267459 96.754624-276.584316 96.754624-64.538899 0-128.509862-13.729699-185.5336-39.763632l-141.005454 39.022759C183.656345 846.12687 181.820534 846.369394 180.002119 846.369394zM328.290443 764.398474c3.039219 0 6.063089 0.676405 8.845459 2.009773 53.280484 25.532513 113.747647 39.028898 174.863586 39.028898 194.112999 0 352.035752-131.635039 352.035752-293.436122S706.112488 218.563878 511.999488 218.563878c-194.112999 0-352.035752 131.635039-352.035752 293.436122 0 34.271548 7.031137 67.834968 20.896936 99.757005 13.486152 31.05018 33.096792 59.838853 58.284451 85.565794 5.626137 5.745864 7.364735 14.254655 4.445242 21.747303l-29.696346 76.215846 108.938108-30.147624C324.622914 764.644067 326.459748 764.398474 328.290443 764.398474z" fill="#272636" p-id="2290"></path></svg>